<?xml version="1.0" standalone="no"?>
<!DOCTYPE svg PUBLIC "-//W3C//DTD SVG 20010904//EN"
 "http://www.w3.org/TR/2001/REC-SVG-20010904/DTD/svg10.dtd">
<svg version="1.0" xmlns="http://www.w3.org/2000/svg"
 width="700.000000pt" height="700.000000pt" viewBox="0 0 700.000000 700.000000"
 preserveAspectRatio="xMidYMid meet">
<metadata>
Created by potrace 1.11, written by Peter Selinger 2001-2013
</metadata>
<g transform="translate(0.000000,700.000000) scale(0.100000,-0.100000)"
fill="#000000" stroke="none">
<path d="M5210 5959 c-368 -37 -679 -181 -935 -434 -212 -209 -378 -519 -420
-785 -3 -19 -8 -48 -11 -64 -9 -42 -13 -111 -13 -211 0 -159 8 -233 44 -375
69 -274 204 -510 407 -709 220 -216 506 -361 813 -413 77 -13 382 -19 432 -8
21 5 56 11 78 14 22 3 61 12 88 20 26 8 47 12 47 10 0 -2 42 12 94 30 616 223
1011 784 1008 1433 0 119 -5 160 -37 336 -11 60 -78 244 -116 319 -82 164
-166 278 -298 408 -195 190 -397 306 -686 390 -109 32 -366 52 -495 39z m287
-648 c311 -59 569 -286 667 -587 37 -113 52 -290 32 -391 -3 -18 -8 -47 -11
-65 -24 -135 -126 -320 -238 -429 -86 -84 -270 -199 -318 -199 -10 0 -20 -4
-23 -9 -4 -6 -64 -21 -93 -22 -2 0 -17 -5 -35 -10 -53 -15 -226 -12 -312 6
-328 68 -597 322 -672 636 -23 97 -25 112 -25 214 -1 298 139 560 388 725 187
124 424 173 640 131z"/>
<path d="M0 3500 l0 -1510 319 0 318 0 -1 1508 -1 1507 -317 3 -318 2 0 -1510z"/>
<path d="M1914 3500 l0 -1510 318 0 318 0 0 1510 0 1510 -318 0 -318 0 0
-1510z"/>
<path d="M3944 1953 c-21 -38 -74 -133 -119 -213 -45 -80 -98 -175 -118 -211
l-36 -66 147 -71 c174 -84 213 -101 312 -136 41 -15 84 -32 95 -36 31 -14 270
-82 335 -95 8 -2 44 -10 80 -18 36 -8 85 -18 110 -21 25 -3 54 -8 66 -10 20
-4 72 -11 159 -20 223 -25 539 -25 730 -1 17 2 50 7 75 10 25 3 56 7 70 10 14
2 54 9 90 15 36 5 74 12 85 15 11 2 52 12 90 21 266 61 509 150 772 282 l112
56 -38 70 c-21 39 -47 87 -58 106 -11 19 -58 105 -106 190 -47 85 -92 163 -99
173 -12 16 -19 15 -98 -26 -243 -123 -499 -209 -759 -256 -191 -35 -278 -43
-477 -45 -208 -2 -405 16 -594 56 -241 50 -522 150 -713 253 -36 19 -67 35
-70 35 -3 0 -23 -30 -43 -67z"/>
</g>
</svg>
