<svg width="100" height="100" viewBox="0 0 100 100" fill="none" xmlns="http://www.w3.org/2000/svg">
<path d="M31.4125 93.7504C69.15 93.7504 89.7937 62.4817 89.7937 35.4129C89.7937 34.5379 89.7938 33.6504 89.7563 32.7754C93.7754 29.866 97.2441 26.2639 100 22.1379C96.2457 23.7932 92.2673 24.8842 88.1938 25.3754C92.4846 22.8107 95.6983 18.7752 97.2375 14.0192C93.2062 16.4075 88.7938 18.084 84.1937 18.9754C81.1011 15.6818 77.0088 13.4999 72.5505 12.7677C68.0923 12.0354 63.517 12.7937 59.5334 14.925C55.5497 17.0564 52.38 20.4419 50.5153 24.5571C48.6506 28.6722 48.1949 33.2875 49.2188 37.6879C41.0609 37.2789 33.0801 35.1596 25.794 31.4676C18.5079 27.7755 12.0793 22.5932 6.925 16.2567C4.30838 20.7759 3.50984 26.1217 4.69154 31.2083C5.87324 36.295 8.94659 40.7412 13.2875 43.6442C10.0346 43.5337 6.85326 42.6602 4 41.0942V41.3754C4.00561 46.1097 5.64567 50.6968 8.64296 54.3614C11.6403 58.026 15.8109 60.5434 20.45 61.4879C18.6891 61.973 16.8702 62.2148 15.0438 62.2067C13.7561 62.2106 12.4711 62.0913 11.2062 61.8504C12.5174 65.9258 15.0705 69.489 18.5078 72.0409C21.9451 74.5929 26.0946 76.0057 30.375 76.0817C23.1035 81.7929 14.1213 84.8905 4.875 84.8754C3.24575 84.8823 1.61764 84.7884 0 84.5942C9.38447 90.5771 20.2831 93.7539 31.4125 93.7504V93.7504Z" fill="#ADB5BD"/>
</svg>
