<svg width="100" height="100" viewBox="0 0 100 100" fill="none" xmlns="http://www.w3.org/2000/svg">
<path fill-rule="evenodd" clip-rule="evenodd" d="M50 0C22.4 0 0 22.4 0 50C0 77.6 22.4 100 50 100C77.55 100 100 77.6 100 50C100 22.4 77.55 0 50 0ZM83.025 23.05C89.1802 30.5455 92.5875 39.9203 92.6813 49.6188C91.2688 49.35 77.1688 46.475 62.9625 48.2625C62.6375 47.5625 62.3625 46.8 62.0375 46.0438C61.1687 43.9813 60.1938 41.8687 59.2188 39.8562C74.9438 33.4625 82.1062 24.2438 83.0312 23.0438L83.025 23.05ZM50 7.375C60.8438 7.375 70.7687 11.4375 78.3125 18.1125C77.55 19.2 71.0938 27.8187 55.9125 33.5125C48.9125 20.6625 41.1625 10.1375 39.9687 8.5125C43.2569 7.74473 46.6234 7.36299 50 7.375V7.375ZM31.8312 11.3875C37.5542 19.319 42.8412 27.5562 47.6687 36.0625C27.7125 41.375 10.0875 41.2688 8.1875 41.2688C9.5616 34.8045 12.4103 28.7451 16.5116 23.563C20.6128 18.3809 25.8556 14.2162 31.8312 11.3937V11.3875ZM7.26875 50.0625V48.75C9.1125 48.8125 29.8312 49.0813 51.1437 42.6812C52.3875 45.0625 53.525 47.5063 54.6125 49.9438L52.925 50.4313C30.9125 57.5375 19.2 76.95 18.2187 78.5812C11.1676 70.7537 7.26658 60.5914 7.26875 50.0562V50.0625ZM50 92.7312C40.5097 92.7461 31.2887 89.5771 23.8125 83.7313C24.5625 82.1563 33.2437 65.4563 57.3187 57.05C57.4312 56.9938 57.4813 56.9938 57.5938 56.9438C61.6525 67.421 64.7018 78.2619 66.7 89.3188C61.425 91.5854 55.7414 92.7468 50 92.7312V92.7312ZM73.8125 85.4125C73.375 82.8063 71.0938 70.3375 65.5125 54.9875C78.9063 52.875 90.6187 56.3438 92.0812 56.8313C91.1703 62.5978 89.0766 68.1137 85.9316 73.0323C82.7866 77.9509 78.6584 82.1659 73.8063 85.4125H73.8125Z" fill="white"/>
</svg>
