<svg width="100" height="100" viewBox="0 0 100 100" fill="none" xmlns="http://www.w3.org/2000/svg">
<path d="M50 0C36.4312 0 34.725 0.0625 29.3938 0.3C24.0625 0.55 20.4312 1.3875 17.25 2.625C13.9131 3.88012 10.8906 5.84891 8.39375 8.39375C5.85048 10.8919 3.88192 13.914 2.625 17.25C1.3875 20.425 0.54375 24.0625 0.3 29.375C0.0625 34.7187 0 36.4188 0 50.0063C0 63.5813 0.0625 65.2813 0.3 70.6125C0.55 75.9375 1.3875 79.5687 2.625 82.75C3.90625 86.0375 5.6125 88.825 8.39375 91.6062C11.1688 94.3875 13.9563 96.1 17.2438 97.375C20.4313 98.6125 24.0563 99.4562 29.3813 99.7C34.7188 99.9375 36.4187 100 50 100C63.5813 100 65.275 99.9375 70.6125 99.7C75.9313 99.45 79.575 98.6125 82.7563 97.375C86.091 96.1193 89.1114 94.1505 91.6062 91.6062C94.3875 88.825 96.0937 86.0375 97.375 82.75C98.6062 79.5687 99.45 75.9375 99.7 70.6125C99.9375 65.2813 100 63.5813 100 50C100 36.4187 99.9375 34.7188 99.7 29.3813C99.45 24.0625 98.6062 20.425 97.375 17.25C96.1183 13.9139 94.1497 10.8917 91.6062 8.39375C89.1102 5.84797 86.0875 3.87903 82.75 2.625C79.5625 1.3875 75.925 0.54375 70.6062 0.3C65.2687 0.0625 63.575 0 49.9875 0H50.0063H50ZM45.5187 9.0125H50.0063C63.3563 9.0125 64.9375 9.05625 70.2062 9.3C75.0812 9.51875 77.7312 10.3375 79.4937 11.0188C81.825 11.925 83.4937 13.0125 85.2437 14.7625C86.9937 16.5125 88.075 18.175 88.9813 20.5125C89.6688 22.2688 90.4813 24.9188 90.7 29.7938C90.9438 35.0625 90.9938 36.6438 90.9938 49.9875C90.9938 63.3313 90.9438 64.9187 90.7 70.1875C90.4813 75.0625 89.6625 77.7063 88.9813 79.4688C88.1796 81.6397 86.9002 83.6027 85.2375 85.2125C83.4875 86.9625 81.825 88.0438 79.4875 88.95C77.7375 89.6375 75.0875 90.45 70.2062 90.675C64.9375 90.9125 63.3563 90.9688 50.0063 90.9688C36.6563 90.9688 35.0688 90.9125 29.8 90.675C24.925 90.45 22.2812 89.6375 20.5187 88.95C18.3469 88.1495 16.382 86.8724 14.7687 85.2125C13.1047 83.6002 11.8233 81.6354 11.0188 79.4625C10.3375 77.7062 9.51875 75.0563 9.3 70.1813C9.0625 64.9125 9.0125 63.3312 9.0125 49.975C9.0125 36.625 9.0625 35.05 9.3 29.7812C9.525 24.9062 10.3375 22.2563 11.025 20.4938C11.9313 18.1625 13.0187 16.4937 14.7687 14.7437C16.5187 12.9937 18.1812 11.9125 20.5187 11.0063C22.2812 10.3188 24.925 9.50625 29.8 9.28125C34.4125 9.06875 36.2 9.00625 45.5187 9V9.0125V9.0125ZM76.6937 17.3125C75.9058 17.3125 75.1256 17.4677 74.3976 17.7692C73.6697 18.0708 73.0083 18.5127 72.4511 19.0699C71.894 19.627 71.452 20.2884 71.1505 21.0164C70.8489 21.7444 70.6937 22.5246 70.6937 23.3125C70.6937 24.1004 70.8489 24.8806 71.1505 25.6086C71.452 26.3366 71.894 26.998 72.4511 27.5551C73.0083 28.1123 73.6697 28.5542 74.3976 28.8558C75.1256 29.1573 75.9058 29.3125 76.6937 29.3125C78.285 29.3125 79.8112 28.6804 80.9364 27.5551C82.0616 26.4299 82.6937 24.9038 82.6937 23.3125C82.6937 21.7212 82.0616 20.1951 80.9364 19.0699C79.8112 17.9446 78.285 17.3125 76.6937 17.3125V17.3125ZM50.0063 24.325C46.6004 24.2719 43.2181 24.8968 40.0561 26.1634C36.8941 27.43 34.0157 29.3129 31.5884 31.7026C29.1612 34.0923 27.2335 36.941 25.9178 40.0829C24.602 43.2247 23.9244 46.5969 23.9244 50.0031C23.9244 53.4093 24.602 56.7815 25.9178 59.9234C27.2335 63.0652 29.1612 65.9139 31.5884 68.3036C34.0157 70.6933 36.8941 72.5763 40.0561 73.8429C43.2181 75.1095 46.6004 75.7344 50.0063 75.6813C56.7471 75.5761 63.1763 72.8245 67.9061 68.0203C72.6359 63.2162 75.2869 56.7448 75.2869 50.0031C75.2869 43.2614 72.6359 36.7901 67.9061 31.9859C63.1763 27.1818 56.7471 24.4302 50.0063 24.325V24.325ZM50.0063 33.3313C54.4271 33.3313 58.6668 35.0874 61.7928 38.2134C64.9188 41.3394 66.675 45.5792 66.675 50C66.675 54.4208 64.9188 58.6606 61.7928 61.7866C58.6668 64.9126 54.4271 66.6687 50.0063 66.6687C45.5854 66.6687 41.3457 64.9126 38.2197 61.7866C35.0937 58.6606 33.3375 54.4208 33.3375 50C33.3375 45.5792 35.0937 41.3394 38.2197 38.2134C41.3457 35.0874 45.5854 33.3313 50.0063 33.3313V33.3313Z" fill="white"/>
</svg>
