<?xml version="1.0" encoding="utf-8"?>
<!-- Generator: Adobe Illustrator 16.0.0, SVG Export Plug-In . SVG Version: 6.00 Build 0)  -->
<!DOCTYPE svg PUBLIC "-//W3C//DTD SVG 1.1//EN" "http://www.w3.org/Graphics/SVG/1.1/DTD/svg11.dtd">
<svg version="1.1" id="Layer_1" xmlns="http://www.w3.org/2000/svg" xmlns:xlink="http://www.w3.org/1999/xlink" x="0px" y="0px"
	 width="1280px" height="428px" viewBox="0 0 1280 428" enable-background="new 0 0 1280 428" xml:space="preserve">
<g>
	<rect x="423" fill="#4242AA" width="222" height="224"/>
	<g>
		<rect x="1061" fill="#4242AA" width="219" height="214"/>
		<rect x="1057" y="108" fill="#4A4ABD" width="223" height="106"/>
	</g>
	<g>
		<rect x="638" y="214" fill="#4242AA" width="219" height="214"/>
		<rect x="638" y="321" fill="#4A4ABD" width="215" height="107"/>
	</g>
	<g>
		<rect x="213" y="214" fill="#4242AA" width="214" height="214"/>
		<polygon fill="#4A4ABD" points="426,428 212.667,428 319.334,321.334 319.334,321.334 		"/>
	</g>
	<g>
		<rect x="853" fill="#4242AA" width="214" height="214"/>
		<g>
			<polygon fill="#4A4ABD" points="852.667,108 960,108 960,-0.222 			"/>
			<polygon fill="#4A4ABD" points="959.334,108 1067,108 1067,-0.222 			"/>
			<polygon fill="#4A4ABD" points="852.667,214 960,214 960,107.444 			"/>
			<polygon fill="#4A4ABD" points="1067,214 1067,107.444 959.334,214 			"/>
		</g>
	</g>
	<g>
		<rect x="427" y="214" fill="#4242AA" width="213" height="214"/>
		<g>
			<polygon fill="#4A4ABD" points="426,321 533,321 533,214.111 			"/>
			<polygon fill="#4A4ABD" points="532.667,321 640,321 640,214.111 			"/>
			<polygon fill="#4A4ABD" points="426,428 533,428 533,320.777 			"/>
			<polygon fill="#4A4ABD" points="640,428 640,320.777 532.667,428 			"/>
		</g>
	</g>
	<path fill="#4A4ABD" d="M458.227,108.293c0-40.609,32.922-73.531,73.533-73.531s73.533,32.922,73.533,73.531
		c0,40.615-32.922,73.537-73.533,73.537S458.227,148.908,458.227,108.293z"/>
	<rect x="853" y="214" fill="#4242AA" width="214" height="214"/>
	<path fill="#4A4ABD" d="M884.894,321.627c0-40.609,32.922-73.531,73.534-73.531c40.609,0,73.531,32.922,73.531,73.531
		c0,40.615-32.922,73.537-73.531,73.537C917.815,395.164,884.894,362.242,884.894,321.627z"/>
	<g>
		<rect x="640" fill="#4242AA" width="213" height="214"/>
		<g>
			<polygon fill="#4A4ABD" points="640,179.913 673.532,214 726.331,214 640,127.114 			"/>
			<polygon fill="#4A4ABD" points="640,78.09 775.354,214 828.157,214 640,25.291 			"/>
			<polygon fill="#4A4ABD" points="663.845,0 853,189.598 853,136.799 716.644,0 			"/>
			<polygon fill="#4A4ABD" points="853,34.976 818.47,0 765.667,0 853,87.775 			"/>
		</g>
	</g>
	<g>
		<rect y="214" fill="#4242AA" width="213" height="214"/>
		<g>
			<polygon fill="#4A4ABD" points="0,393.246 33.532,428 86.332,428 0,340.447 			"/>
			<polygon fill="#4A4ABD" points="0,291.424 135.355,428 188.157,428 0,238.625 			"/>
			<polygon fill="#4A4ABD" points="23.844,214 213,402.932 213,350.133 76.644,214 			"/>
			<polygon fill="#4A4ABD" points="213,248.309 178.469,214 125.667,214 213,301.109 			"/>
		</g>
	</g>
	<g>
		<rect fill="#4242AA" width="222" height="224"/>
		<g>
			<path fill="#4A4ABD" d="M105.093,33.64c-40.611,0-73.533,32.922-73.533,73.531c0,20.623,8.499,39.25,22.172,52.604
				L157.695,55.814C144.342,42.14,125.714,33.64,105.093,33.64z"/>
		</g>
	</g>
	<g>
		<rect x="213" fill="#4A4ABD" width="214" height="214"/>
		<g>
			<g>
				<circle fill="#4242AA" cx="232.852" cy="23.278" r="7.722"/>
				<circle fill="#4242AA" cx="280.677" cy="23.278" r="7.722"/>
				<circle fill="#4242AA" cx="331.018" cy="23.278" r="7.722"/>
				<circle fill="#4242AA" cx="378.843" cy="23.278" r="7.723"/>
			</g>
			<g>
				<path fill="#4242AA" d="M250.3,48.45c0-4.268,3.458-7.724,7.723-7.724c4.264,0,7.723,3.456,7.723,7.724
					c0,4.26-3.458,7.721-7.723,7.721C253.758,56.171,250.3,52.71,250.3,48.45z"/>
				<path fill="#4242AA" d="M298.125,48.45c0-4.268,3.457-7.724,7.722-7.724c4.266,0,7.723,3.456,7.723,7.724
					c0,4.26-3.457,7.721-7.723,7.721C301.583,56.171,298.125,52.71,298.125,48.45z"/>
				<path fill="#4242AA" d="M348.467,48.45c0-4.268,3.458-7.724,7.723-7.724s7.721,3.456,7.721,7.724
					c0,4.26-3.457,7.721-7.721,7.721S348.467,52.71,348.467,48.45z"/>
				<path fill="#4242AA" d="M396.292,48.45c0-4.268,3.457-7.724,7.721-7.724c4.266,0,7.723,3.456,7.723,7.724
					c0,4.26-3.457,7.721-7.723,7.721C399.75,56.171,396.292,52.71,396.292,48.45z"/>
			</g>
			<g>
				<path fill="#4242AA" d="M225.129,71.104c0-4.269,3.457-7.724,7.723-7.724c4.265,0,7.722,3.456,7.722,7.724
					c0,4.263-3.457,7.721-7.722,7.721C228.586,78.825,225.129,75.366,225.129,71.104z"/>
				<path fill="#4242AA" d="M272.955,71.104c0-4.269,3.457-7.724,7.721-7.724c4.265,0,7.723,3.456,7.723,7.724
					c0,4.263-3.458,7.721-7.723,7.721C276.412,78.825,272.955,75.366,272.955,71.104z"/>
				<path fill="#4242AA" d="M323.296,71.104c0-4.269,3.457-7.724,7.723-7.724c4.264,0,7.721,3.456,7.721,7.724
					c0,4.263-3.457,7.721-7.721,7.721C326.753,78.825,323.296,75.366,323.296,71.104z"/>
				<path fill="#4242AA" d="M371.121,71.104c0-4.269,3.458-7.724,7.723-7.724c4.264,0,7.723,3.456,7.723,7.724
					c0,4.263-3.458,7.721-7.723,7.721C374.579,78.825,371.121,75.366,371.121,71.104z"/>
			</g>
			<g>
				<circle fill="#4242AA" cx="258.023" cy="96.272" r="7.723"/>
				<circle fill="#4242AA" cx="305.848" cy="96.272" r="7.722"/>
				<circle fill="#4242AA" cx="356.189" cy="96.272" r="7.722"/>
				<circle fill="#4242AA" cx="404.014" cy="96.272" r="7.722"/>
			</g>
			<g>
				<path fill="#4242AA" d="M225.129,118.929c0-4.268,3.457-7.724,7.723-7.724c4.265,0,7.722,3.456,7.722,7.724
					c0,4.261-3.457,7.719-7.722,7.719C228.586,126.647,225.129,123.189,225.129,118.929z"/>
				<path fill="#4242AA" d="M272.955,118.929c0-4.268,3.457-7.724,7.721-7.724c4.265,0,7.723,3.456,7.723,7.724
					c0,4.261-3.458,7.719-7.723,7.719C276.412,126.647,272.955,123.189,272.955,118.929z"/>
				<path fill="#4242AA" d="M323.296,118.929c0-4.268,3.457-7.724,7.723-7.724c4.264,0,7.721,3.456,7.721,7.724
					c0,4.261-3.457,7.719-7.721,7.719C326.753,126.647,323.296,123.189,323.296,118.929z"/>
				<path fill="#4242AA" d="M371.121,118.929c0-4.268,3.458-7.724,7.723-7.724c4.264,0,7.723,3.456,7.723,7.724
					c0,4.261-3.458,7.719-7.723,7.719C374.579,126.647,371.121,123.189,371.121,118.929z"/>
			</g>
			<g>
				<circle fill="#4242AA" cx="258.023" cy="144.098" r="7.723"/>
				<circle fill="#4242AA" cx="305.848" cy="144.098" r="7.722"/>
				<circle fill="#4242AA" cx="356.189" cy="144.098" r="7.722"/>
				<circle fill="#4242AA" cx="404.014" cy="144.098" r="7.722"/>
			</g>
			<g>
				<path fill="#4242AA" d="M225.129,166.752c0-4.266,3.457-7.724,7.723-7.724c4.265,0,7.722,3.458,7.722,7.724
					c0,4.263-3.457,7.721-7.722,7.721C228.586,174.473,225.129,171.015,225.129,166.752z"/>
				<path fill="#4242AA" d="M272.955,166.752c0-4.266,3.457-7.724,7.721-7.724c4.265,0,7.723,3.458,7.723,7.724
					c0,4.263-3.458,7.721-7.723,7.721C276.412,174.473,272.955,171.015,272.955,166.752z"/>
				<path fill="#4242AA" d="M323.296,166.752c0-4.266,3.457-7.724,7.723-7.724c4.264,0,7.721,3.458,7.721,7.724
					c0,4.263-3.457,7.721-7.721,7.721C326.753,174.473,323.296,171.015,323.296,166.752z"/>
				<path fill="#4242AA" d="M371.121,166.752c0-4.266,3.458-7.724,7.723-7.724c4.264,0,7.723,3.458,7.723,7.724
					c0,4.263-3.458,7.721-7.723,7.721C374.579,174.473,371.121,171.015,371.121,166.752z"/>
			</g>
			<g>
				<path fill="#4242AA" d="M250.3,191.924c0-4.269,3.458-7.724,7.723-7.724c4.264,0,7.723,3.456,7.723,7.724
					c0,4.26-3.458,7.721-7.723,7.721C253.758,199.645,250.3,196.184,250.3,191.924z"/>
				<path fill="#4242AA" d="M298.125,191.924c0-4.269,3.457-7.724,7.722-7.724c4.266,0,7.723,3.456,7.723,7.724
					c0,4.26-3.457,7.721-7.723,7.721C301.583,199.645,298.125,196.184,298.125,191.924z"/>
				<path fill="#4242AA" d="M348.467,191.924c0-4.269,3.458-7.724,7.723-7.724s7.721,3.456,7.721,7.724
					c0,4.26-3.457,7.721-7.721,7.721S348.467,196.184,348.467,191.924z"/>
				<path fill="#4242AA" d="M396.292,191.924c0-4.269,3.457-7.724,7.721-7.724c4.266,0,7.723,3.456,7.723,7.724
					c0,4.26-3.457,7.721-7.723,7.721C399.75,199.645,396.292,196.184,396.292,191.924z"/>
			</g>
		</g>
	</g>
	<g>
		<rect x="1067" y="204" fill="#4A4ABD" width="213" height="224"/>
		<g>
			<g>
				<circle fill="#4242AA" cx="1086.186" cy="236.611" r="7.722"/>
				<circle fill="#4242AA" cx="1134.01" cy="236.611" r="7.723"/>
				<circle fill="#4242AA" cx="1184.352" cy="236.611" r="7.721"/>
				<circle fill="#4242AA" cx="1232.177" cy="236.611" r="7.723"/>
			</g>
			<g>
				<path fill="#4242AA" d="M1103.634,261.783c0-4.268,3.458-7.725,7.721-7.725c4.266,0,7.725,3.457,7.725,7.725
					c0,4.26-3.459,7.721-7.725,7.721C1107.092,269.504,1103.634,266.043,1103.634,261.783z"/>
				<path fill="#4242AA" d="M1151.459,261.783c0-4.268,3.458-7.725,7.722-7.725c4.266,0,7.721,3.457,7.721,7.725
					c0,4.26-3.455,7.721-7.721,7.721C1154.917,269.504,1151.459,266.043,1151.459,261.783z"/>
				<path fill="#4242AA" d="M1201.8,261.783c0-4.268,3.459-7.725,7.722-7.725c4.266,0,7.724,3.457,7.724,7.725
					c0,4.26-3.458,7.721-7.724,7.721C1205.259,269.504,1201.8,266.043,1201.8,261.783z"/>
				<path fill="#4242AA" d="M1249.626,261.783c0-4.268,3.458-7.725,7.721-7.725c4.266,0,7.722,3.457,7.722,7.725
					c0,4.26-3.456,7.721-7.722,7.721C1253.084,269.504,1249.626,266.043,1249.626,261.783z"/>
			</g>
			<g>
				<path fill="#4242AA" d="M1078.464,284.438c0-4.27,3.456-7.725,7.722-7.725c4.263,0,7.722,3.455,7.722,7.725
					c0,4.262-3.459,7.721-7.722,7.721C1081.92,292.158,1078.464,288.699,1078.464,284.438z"/>
				<path fill="#4242AA" d="M1126.287,284.438c0-4.27,3.458-7.725,7.724-7.725c4.264,0,7.722,3.455,7.722,7.725
					c0,4.262-3.458,7.721-7.722,7.721C1129.745,292.158,1126.287,288.699,1126.287,284.438z"/>
				<path fill="#4242AA" d="M1176.631,284.438c0-4.27,3.456-7.725,7.722-7.725c4.263,0,7.721,3.455,7.721,7.725
					c0,4.262-3.458,7.721-7.721,7.721C1180.087,292.158,1176.631,288.699,1176.631,284.438z"/>
				<path fill="#4242AA" d="M1224.454,284.438c0-4.27,3.458-7.725,7.724-7.725c4.263,0,7.722,3.455,7.722,7.725
					c0,4.262-3.459,7.721-7.722,7.721C1227.912,292.158,1224.454,288.699,1224.454,284.438z"/>
			</g>
			<g>
				<circle fill="#4242AA" cx="1111.356" cy="309.605" r="7.723"/>
				<circle fill="#4242AA" cx="1159.18" cy="309.605" r="7.721"/>
				<circle fill="#4242AA" cx="1209.522" cy="309.605" r="7.723"/>
				<circle fill="#4242AA" cx="1257.347" cy="309.605" r="7.721"/>
			</g>
			<g>
				<path fill="#4242AA" d="M1078.464,332.262c0-4.268,3.456-7.723,7.722-7.723c4.263,0,7.722,3.455,7.722,7.723
					c0,4.262-3.459,7.719-7.722,7.719C1081.92,339.98,1078.464,336.523,1078.464,332.262z"/>
				<path fill="#4242AA" d="M1126.287,332.262c0-4.268,3.458-7.723,7.724-7.723c4.264,0,7.722,3.455,7.722,7.723
					c0,4.262-3.458,7.719-7.722,7.719C1129.745,339.98,1126.287,336.523,1126.287,332.262z"/>
				<path fill="#4242AA" d="M1176.631,332.262c0-4.268,3.456-7.723,7.722-7.723c4.263,0,7.721,3.455,7.721,7.723
					c0,4.262-3.458,7.719-7.721,7.719C1180.087,339.98,1176.631,336.523,1176.631,332.262z"/>
				<path fill="#4242AA" d="M1224.454,332.262c0-4.268,3.458-7.723,7.724-7.723c4.263,0,7.722,3.455,7.722,7.723
					c0,4.262-3.459,7.719-7.722,7.719C1227.912,339.98,1224.454,336.523,1224.454,332.262z"/>
			</g>
			<g>
				<circle fill="#4242AA" cx="1111.356" cy="357.432" r="7.723"/>
				<circle fill="#4242AA" cx="1159.18" cy="357.432" r="7.721"/>
				<circle fill="#4242AA" cx="1209.522" cy="357.432" r="7.723"/>
				<circle fill="#4242AA" cx="1257.347" cy="357.432" r="7.721"/>
			</g>
			<g>
				<path fill="#4242AA" d="M1078.464,380.086c0-4.266,3.456-7.725,7.722-7.725c4.263,0,7.722,3.459,7.722,7.725
					c0,4.262-3.459,7.721-7.722,7.721C1081.92,387.807,1078.464,384.348,1078.464,380.086z"/>
				<path fill="#4242AA" d="M1126.287,380.086c0-4.266,3.458-7.725,7.724-7.725c4.264,0,7.722,3.459,7.722,7.725
					c0,4.262-3.458,7.721-7.722,7.721C1129.745,387.807,1126.287,384.348,1126.287,380.086z"/>
				<path fill="#4242AA" d="M1176.631,380.086c0-4.266,3.456-7.725,7.722-7.725c4.263,0,7.721,3.459,7.721,7.725
					c0,4.262-3.458,7.721-7.721,7.721C1180.087,387.807,1176.631,384.348,1176.631,380.086z"/>
				<path fill="#4242AA" d="M1224.454,380.086c0-4.266,3.458-7.725,7.724-7.725c4.263,0,7.722,3.459,7.722,7.725
					c0,4.262-3.459,7.721-7.722,7.721C1227.912,387.807,1224.454,384.348,1224.454,380.086z"/>
			</g>
			<g>
				<path fill="#4242AA" d="M1103.634,405.258c0-4.27,3.458-7.725,7.721-7.725c4.266,0,7.725,3.455,7.725,7.725
					c0,4.26-3.459,7.721-7.725,7.721C1107.092,412.979,1103.634,409.518,1103.634,405.258z"/>
				<path fill="#4242AA" d="M1151.459,405.258c0-4.27,3.458-7.725,7.722-7.725c4.266,0,7.721,3.455,7.721,7.725
					c0,4.26-3.455,7.721-7.721,7.721C1154.917,412.979,1151.459,409.518,1151.459,405.258z"/>
				<path fill="#4242AA" d="M1201.8,405.258c0-4.27,3.459-7.725,7.722-7.725c4.266,0,7.724,3.455,7.724,7.725
					c0,4.26-3.458,7.721-7.724,7.721C1205.259,412.979,1201.8,409.518,1201.8,405.258z"/>
				<path fill="#4242AA" d="M1249.626,405.258c0-4.27,3.458-7.725,7.721-7.725c4.266,0,7.722,3.455,7.722,7.725
					c0,4.26-3.456,7.721-7.722,7.721C1253.084,412.979,1249.626,409.518,1249.626,405.258z"/>
			</g>
		</g>
	</g>
</g>
</svg>
