<?xml version="1.0" encoding="utf-8"?>
<!-- Generator: Adobe Illustrator 16.0.0, SVG Export Plug-In . SVG Version: 6.00 Build 0)  -->
<!DOCTYPE svg PUBLIC "-//W3C//DTD SVG 1.1//EN" "http://www.w3.org/Graphics/SVG/1.1/DTD/svg11.dtd">
<svg version="1.1" id="Layer_1" xmlns="http://www.w3.org/2000/svg" xmlns:xlink="http://www.w3.org/1999/xlink" x="0px" y="0px"
	 width="27.714px" height="28px" viewBox="0 0 27.714 28" enable-background="new 0 0 27.714 28" xml:space="preserve">
<g id="Flat_copy">
	<path fill="#666666" d="M21.039,8.211c-0.02,0.024-1.479,2.136-5.078,3.604c0.212,0.434,0.417,0.876,0.605,1.321
		c0.066,0.159,0.134,0.316,0.197,0.472c3.13-0.393,6.214,0.268,6.348,0.296C23.088,11.745,22.314,9.764,21.039,8.211z M17.32,15.048
		c1.193,3.285,1.68,5.958,1.772,6.509c2.046-1.382,3.5-3.573,3.904-6.112C22.809,15.383,20.26,14.577,17.32,15.048z M17.557,22.39
		c-0.135-0.797-0.663-3.588-1.947-6.919c-0.021,0.009-0.04,0.015-0.062,0.021c-5.375,1.872-7.13,5.65-7.149,5.692
		c1.547,1.203,3.487,1.929,5.601,1.929C15.262,23.112,16.462,22.855,17.557,22.39z M15.26,10.459
		c3.438-1.288,4.733-3.265,4.758-3.298C18.414,5.747,16.307,4.89,14,4.89c-0.74,0-1.459,0.089-2.146,0.255
		C11.989,5.328,13.701,7.598,15.26,10.459z M14.989,13.96c-0.229-0.518-0.477-1.038-0.737-1.548
		c-4.693,1.405-9.194,1.304-9.355,1.298C4.893,13.808,4.888,13.902,4.888,14c0,2.34,0.883,4.475,2.334,6.087
		c-0.003-0.004,2.49-4.428,7.406-6.017C14.748,14.031,14.871,13.995,14.989,13.96z M24.453,11.853
		c0.144,0.701,0.217,1.423,0.217,2.147c0,0.724-0.073,1.444-0.217,2.146c-0.142,0.688-0.352,1.362-0.622,2.007
		c-0.267,0.633-0.597,1.243-0.984,1.812c-0.382,0.565-0.82,1.095-1.301,1.579c-0.483,0.479-1.016,0.918-1.581,1.302
		c-0.569,0.386-1.179,0.714-1.81,0.983c-0.646,0.272-1.321,0.48-2.006,0.62C15.446,24.597,14.723,24.67,14,24.67
		s-1.447-0.072-2.147-0.22c-0.687-0.141-1.361-0.349-2.005-0.619c-0.634-0.27-1.243-0.6-1.813-0.984
		c-0.563-0.382-1.096-0.821-1.577-1.301c-0.482-0.484-0.921-1.015-1.303-1.581c-0.385-0.567-0.715-1.178-0.984-1.811
		c-0.274-0.646-0.482-1.32-0.623-2.006C3.403,15.444,3.33,14.724,3.33,14c0-0.724,0.073-1.447,0.218-2.147
		c0.14-0.687,0.35-1.362,0.622-2.006c0.267-0.634,0.599-1.245,0.984-1.813c0.381-0.566,0.82-1.095,1.302-1.579
		c0.481-0.481,1.013-0.918,1.577-1.301c0.57-0.385,1.181-0.717,1.812-0.986c0.644-0.272,1.319-0.481,2.005-0.62
		C12.553,3.402,13.277,3.33,14,3.33s1.446,0.073,2.149,0.217c0.685,0.14,1.359,0.349,2.004,0.621c0.633,0.269,1.243,0.6,1.812,0.986
		c0.565,0.382,1.098,0.82,1.58,1.301c0.481,0.484,0.92,1.014,1.302,1.58c0.386,0.568,0.716,1.179,0.984,1.813
		C24.103,10.49,24.313,11.165,24.453,11.853z M13.496,11.01c-1.577-2.803-3.262-5.089-3.383-5.251
		c-2.542,1.2-4.437,3.542-5.03,6.364C5.323,12.124,9.121,12.172,13.496,11.01z"/>
</g>
</svg>
