<?xml version="1.0" encoding="utf-8"?>
<!-- Generator: Adobe Illustrator 16.0.0, SVG Export Plug-In . SVG Version: 6.00 Build 0)  -->
<!DOCTYPE svg PUBLIC "-//W3C//DTD SVG 1.1//EN" "http://www.w3.org/Graphics/SVG/1.1/DTD/svg11.dtd">
<svg version="1.1" id="Layer_1" xmlns="http://www.w3.org/2000/svg" xmlns:xlink="http://www.w3.org/1999/xlink" x="0px" y="0px"
	 width="800px" height="600px" viewBox="0 0 800 600" enable-background="new 0 0 800 600" xml:space="preserve">
<g>
	<rect x="218.704" y="127.577" fill="#FFFFFF" width="72.901" height="344.85"/>
	<rect y="127.577" fill="#FFFFFF" width="72.901" height="344.85"/>
	<g>
		<path fill="#FFFFFF" d="M609.83,91.128c54.876,0,99.519,44.642,99.519,99.519s-44.643,99.518-99.519,99.518
			c-54.877,0-99.519-44.642-99.519-99.518S554.957,91.128,609.83,91.128 M609.83,18.224c-95.228,0-172.423,77.195-172.423,172.423
			s77.195,172.423,172.423,172.423c95.23,0,172.423-77.195,172.423-172.423S705.061,18.224,609.83,18.224L609.83,18.224z"/>
		<path fill="#FFFFFF" d="M609.83,581.776c-66.552,0-132.309-17.046-190.17-49.294l35.501-63.684
			c47.03,26.221,100.515,40.073,154.673,40.073c54.157,0,107.642-13.853,154.676-40.073l35.497,63.684
			C742.138,564.728,676.382,581.776,609.83,581.776z"/>
	</g>
</g>
</svg>
