<?xml version="1.0" encoding="utf-8"?>
<!-- Generator: Adobe Illustrator 16.0.0, SVG Export Plug-In . SVG Version: 6.00 Build 0)  -->
<!DOCTYPE svg PUBLIC "-//W3C//DTD SVG 1.1//EN" "http://www.w3.org/Graphics/SVG/1.1/DTD/svg11.dtd">
<svg version="1.1" id="Layer_1" xmlns="http://www.w3.org/2000/svg" xmlns:xlink="http://www.w3.org/1999/xlink" x="0px" y="0px"
	 width="56.693px" height="56.693px" viewBox="0 0 56.693 56.693" enable-background="new 0 0 56.693 56.693" xml:space="preserve">
<path fill="#666666" d="M51.536,13.489c-1.715,0.762-3.562,1.277-5.498,1.507c1.978-1.184,3.494-3.06,4.21-5.296
	c-1.851,1.098-3.898,1.895-6.079,2.325C42.422,10.163,39.933,9,37.181,9c-5.287,0-9.573,4.287-9.573,9.574
	c0,0.749,0.084,1.479,0.248,2.181c-7.956-0.4-15.011-4.21-19.733-10.003c-0.824,1.414-1.295,3.058-1.295,4.813
	c0,3.322,1.689,6.252,4.258,7.968c-1.568-0.05-3.045-0.481-4.335-1.198c-0.001,0.04-0.001,0.081-0.001,0.121
	c0,4.638,3.299,8.507,7.679,9.386c-0.803,0.219-1.649,0.336-2.522,0.336c-0.617,0-1.217-0.059-1.801-0.172
	c1.218,3.803,4.753,6.57,8.942,6.646c-3.276,2.568-7.403,4.1-11.889,4.1c-0.772,0-1.535-0.045-2.284-0.135
	c4.237,2.719,9.27,4.303,14.675,4.303c17.609,0,27.237-14.588,27.237-27.238c0-0.415-0.008-0.829-0.026-1.24
	C48.631,17.095,50.254,15.408,51.536,13.489z"/>
</svg>
